<?xml version="1.0" encoding="utf-8"?>
<!-- Generator: Adobe Illustrator 18.1.1, SVG Export Plug-In . SVG Version: 6.00 Build 0)  -->
<!DOCTYPE svg PUBLIC "-//W3C//DTD SVG 1.1//EN" "http://www.w3.org/Graphics/SVG/1.1/DTD/svg11.dtd">
<svg version="1.1" id="Layer_1" xmlns="http://www.w3.org/2000/svg" xmlns:xlink="http://www.w3.org/1999/xlink" x="0px" y="0px"
	 viewBox="0 0 134 46" enable-background="new 0 0 134 46" xml:space="preserve">
<g>
	<path fill="#555759" d="M133.4,44.1h-1.2v-3.3c0-0.4-0.1-0.6-0.2-0.8c-0.2-0.2-0.4-0.3-0.6-0.3c-0.3,0-0.6,0.1-0.8,0.4
		c-0.2,0.3-0.4,0.7-0.4,1.2v2.8h-1.2v-5.4h1.1V40c0.4-0.9,0.9-1.4,1.6-1.4c0.5,0,0.9,0.1,1.2,0.4c0.3,0.3,0.5,0.8,0.5,1.6V44.1"/>
	<g>
		<path fill-rule="evenodd" clip-rule="evenodd" fill="#006772" d="M0,0.1l0,28c0,0,0.7-0.6,1.5-0.6c0.4,0,2.2,0.1,2.5,1.8
			c0.6,3.4-2.7,3.3-2.7,3c0.3,1,1,1.6,1.9,1.6C7,34,9,29.9,15.8,15.4C22.6,1,28.3,0.1,28.3,0.1H0"/>
		<rect y="0" fill="none" width="134" height="46"/>
		<rect x="0" y="0.1" fill="none" width="133.9" height="45.9"/>
		<path fill="#555759" d="M51.6,44.1h-1.3v-3.3c0-0.7-0.3-1-0.9-1c-0.4,0-0.6,0.1-0.9,0.4c-0.2,0.3-0.3,0.7-0.3,1.2v2.8H47v-3.3
			c0-0.7-0.3-1.1-0.9-1.1c-0.3,0-0.6,0.1-0.9,0.4c-0.2,0.3-0.4,0.7-0.4,1.2v2.8h-1.2v-5.4h1.2v1.1c0.4-0.8,1-1.3,1.8-1.3
			c0.8,0,1.3,0.4,1.5,1.3c0.4-0.8,1-1.3,1.8-1.3c0.5,0,0.9,0.2,1.2,0.5c0.3,0.3,0.5,0.7,0.5,1.2V44.1"/>
		<path fill="#555759" d="M58.2,44.1H57c-0.1-0.3-0.2-0.7-0.2-1.1c-0.3,0.8-0.9,1.2-1.8,1.2c-0.5,0-1-0.2-1.3-0.5
			c-0.3-0.3-0.5-0.7-0.5-1.2c0-1.2,1.1-1.8,3.2-1.8c0.1,0,0.2,0,0.3,0v-0.4c0-0.6-0.4-0.8-1.1-0.8c-0.7,0-1.2,0.3-1.3,0.8l-1-0.2
			c0.1-0.4,0.3-0.8,0.7-1.1c0.4-0.3,1-0.4,1.8-0.4c0.4,0,0.8,0,1,0.1c0.3,0.1,0.5,0.2,0.7,0.4c0.2,0.2,0.3,0.3,0.4,0.5
			c0.1,0.2,0.1,0.5,0.1,1V43C58,43.4,58,43.7,58.2,44.1 M56.8,41.4c-1.6,0-2.3,0.4-2.3,1.1c0,0.2,0.1,0.4,0.2,0.6
			c0.2,0.2,0.4,0.2,0.7,0.2c0.5,0,0.8-0.1,1-0.4c0.2-0.3,0.4-0.6,0.4-1V41.4z"/>
		<path fill="#555759" d="M64.9,44.1h-1.3l-1.4-2.7l-1.2,1.3v1.4h-1.2v-7.2h1.2v4.5c0.1-0.1,0.2-0.2,0.2-0.3l2.1-2.3h1.3l-1.6,1.8
			L64.9,44.1"/>
		<path fill="#555759" d="M66.2,36.8h1.2v1.3h-1.2V36.8z M66.2,38.7h1.2v5.4h-1.2V38.7z"/>
		<rect y="0" fill="none" width="134" height="46"/>
		<path fill="#555759" d="M73.8,44.1h-1.2v-3.3c0-0.4-0.1-0.6-0.2-0.8c-0.2-0.2-0.4-0.3-0.6-0.3c-0.3,0-0.6,0.1-0.8,0.4
			c-0.2,0.3-0.4,0.7-0.4,1.2v2.8h-1.2v-5.4h1.1V40c0.4-0.9,0.9-1.4,1.6-1.4c0.5,0,0.9,0.1,1.2,0.4c0.3,0.3,0.5,0.8,0.5,1.6V44.1"/>
		<path fill="#555759" d="M80.6,37.7v0.9h-0.4c-0.2,0-0.3,0-0.4,0.1c-0.1,0-0.2,0.2-0.4,0.4c0.4,0.3,0.6,0.7,0.6,1.2
			c0,0.5-0.2,0.9-0.6,1.2c-0.4,0.3-0.9,0.5-1.6,0.5c-0.3,0-0.6,0-1-0.1c-0.2,0.1-0.4,0.3-0.4,0.5c0,0.1,0.1,0.3,0.2,0.4
			c0.1,0.1,0.3,0.2,0.5,0.2h1.6c0.5,0,1,0.1,1.3,0.4c0.3,0.3,0.5,0.6,0.5,1c0,0.5-0.2,0.9-0.7,1.3c-0.5,0.3-1.2,0.5-2.1,0.5
			c-1.7,0-2.6-0.5-2.6-1.4c0-0.5,0.3-0.8,0.8-1.1c-0.3-0.3-0.5-0.6-0.5-0.9c0-0.5,0.3-0.8,0.9-1.1c-0.5-0.3-0.7-0.7-0.7-1.2
			c0-0.4,0.2-0.8,0.5-1.1c0.4-0.3,0.9-0.5,1.7-0.5c0.3,0,0.7,0,1,0.1c0.2-0.7,0.6-1,1.3-1H80.6 M76.5,43.8c-0.2,0.2-0.3,0.3-0.3,0.5
			c0,0.2,0.1,0.5,0.4,0.6c0.3,0.2,0.8,0.3,1.4,0.3c0.9,0,1.4-0.2,1.4-0.7c0-0.2-0.1-0.3-0.2-0.4c-0.2-0.1-0.3-0.1-0.6-0.1h-1.3
			C77.1,43.9,76.9,43.9,76.5,43.8z M77.8,41.2c0.7,0,1-0.3,1-0.9c0-0.2-0.1-0.4-0.2-0.6c-0.2-0.2-0.4-0.2-0.7-0.2
			c-0.3,0-0.6,0.1-0.7,0.3c-0.2,0.2-0.3,0.4-0.3,0.6c0,0.3,0.1,0.5,0.3,0.6C77.3,41.1,77.5,41.2,77.8,41.2z"/>
		<rect y="0" fill="none" width="134" height="46"/>
		<rect x="0" y="0.1" fill="none" width="133.9" height="45.9"/>
		<rect x="85.1" y="36.8" fill="#555759" width="1.3" height="7.2"/>
		<polyline fill="#555759" points="91,44.1 89.6,44.1 89.6,38 87.7,38 87.7,36.8 92.9,36.8 92.9,38 91,38 91,44.1 		"/>
		<path fill="#555759" d="M101.8,44.1h-1.2v-3.5c0-0.4-0.1-0.6-0.2-0.8c-0.2-0.2-0.3-0.2-0.6-0.2c-0.3,0-0.6,0.1-0.9,0.4
			c-0.2,0.3-0.4,0.7-0.4,1.3v2.8h-1.2v-7.2h1.2v2.8c0.3-0.8,0.8-1.2,1.6-1.2c1.1,0,1.6,0.6,1.6,1.9V44.1"/>
		<path fill="#555759" d="M108.3,44.1h-1.2c-0.1-0.3-0.2-0.7-0.2-1.1c-0.3,0.8-0.9,1.2-1.8,1.2c-0.5,0-1-0.2-1.3-0.5
			c-0.3-0.3-0.5-0.7-0.5-1.2c0-1.2,1.1-1.8,3.2-1.8c0.1,0,0.2,0,0.3,0v-0.4c0-0.6-0.4-0.8-1.1-0.8c-0.7,0-1.2,0.3-1.3,0.8l-1-0.2
			c0.1-0.4,0.3-0.8,0.7-1.1c0.4-0.3,1-0.4,1.7-0.4c0.4,0,0.8,0,1,0.1c0.3,0.1,0.5,0.2,0.7,0.4c0.2,0.2,0.3,0.3,0.4,0.5
			c0.1,0.2,0.1,0.5,0.1,1V43C108.1,43.4,108.2,43.7,108.3,44.1 M107,41.4c-1.6,0-2.3,0.4-2.3,1.1c0,0.2,0.1,0.4,0.2,0.6
			c0.2,0.2,0.4,0.2,0.7,0.2c0.5,0,0.8-0.1,1-0.4c0.2-0.3,0.4-0.6,0.4-1V41.4z"/>
		<path fill="#555759" d="M111.3,45.9h-1.2v-7.2h1.2v0.9c0.4-0.7,0.9-1,1.6-1c0.6,0,1.1,0.3,1.4,0.8c0.4,0.5,0.5,1.2,0.5,2
			c0,0.8-0.2,1.4-0.5,2c-0.3,0.6-0.8,0.8-1.5,0.8c-0.7,0-1.2-0.3-1.5-0.9V45.9 M111.3,41.9c0,0.4,0.1,0.7,0.3,1
			c0.2,0.3,0.5,0.4,0.8,0.4c0.4,0,0.7-0.2,0.8-0.5c0.2-0.3,0.3-0.8,0.3-1.3c0-0.5-0.1-1-0.3-1.3c-0.2-0.3-0.4-0.5-0.8-0.5
			c-0.3,0-0.6,0.1-0.8,0.4c-0.2,0.3-0.3,0.6-0.3,1.1V41.9z"/>
		<path fill="#555759" d="M117.6,45.9h-1.2v-7.2h1.2v0.9c0.4-0.7,0.9-1,1.6-1c0.6,0,1.1,0.3,1.4,0.8c0.4,0.5,0.5,1.2,0.5,2
			c0,0.8-0.2,1.4-0.5,2c-0.3,0.6-0.8,0.8-1.5,0.8c-0.7,0-1.2-0.3-1.5-0.9V45.9 M117.6,41.9c0,0.4,0.1,0.7,0.3,1
			c0.2,0.3,0.5,0.4,0.8,0.4c0.4,0,0.7-0.2,0.8-0.5c0.2-0.3,0.3-0.8,0.3-1.3c0-0.5-0.1-1-0.3-1.3c-0.2-0.3-0.4-0.5-0.8-0.5
			c-0.3,0-0.6,0.1-0.8,0.4c-0.2,0.3-0.3,0.6-0.3,1.1V41.9z"/>
		<path fill="#555759" d="M126.1,42.4l1.1,0.1c-0.1,0.5-0.4,0.9-0.8,1.2c-0.4,0.3-0.9,0.5-1.5,0.5c-0.7,0-1.3-0.2-1.8-0.7
			c-0.5-0.5-0.7-1.2-0.7-2c0-0.8,0.2-1.5,0.7-2c0.5-0.5,1.1-0.8,1.9-0.8c0.8,0,1.4,0.3,1.8,0.8c0.4,0.5,0.6,1.2,0.6,2l0,0.1h-3.7
			c0,0.4,0,0.7,0.1,0.9c0.1,0.2,0.2,0.4,0.4,0.6c0.2,0.2,0.5,0.2,0.8,0.2C125.5,43.2,125.9,43,126.1,42.4 M126.1,40.8
			c0-0.4-0.1-0.7-0.3-0.9c-0.2-0.2-0.5-0.4-0.8-0.4c-0.3,0-0.6,0.1-0.8,0.3c-0.2,0.2-0.4,0.6-0.4,1H126.1z"/>
		<path fill="#006772" d="M43.7,4h9.7v4.5c1.4-1.9,2.9-3.2,4.4-4c1.5-0.8,3.3-1.2,5.4-1.2c2.9,0,5.1,0.9,6.7,2.6
			c1.6,1.8,2.4,4.5,2.4,8.2v17.8H61.8V16.5c0-1.8-0.3-3-0.9-3.7c-0.6-0.7-1.5-1.1-2.6-1.1c-1.2,0-2.3,0.5-3,1.5
			c-0.8,1-1.2,2.7-1.2,5.3v13.4H43.7V4"/>
		<path fill="#006772" d="M120.6,9.4c-3.5-0.6-4,1.4-4,1.4c-0.6,2.5,4.4,2.9,4.4,2.9c3.4,0.4,6,1,7.7,1.7c1.7,0.7,3,1.7,3.9,3.1
			c0.9,1.3,1.3,2.8,1.3,4.4c0,1.6-0.5,3.2-1.4,4.7c-0.9,1.5-2.4,2.7-4.5,3.6c-2,0.9-4.7,1.1-8.2,1.1c-4.4,0-7.1-0.6-9.3-1.9
			c-2.2-1.3-4.6-4.7-4.4-7.8h9.8c0.1,1.2,0.2,2.2,2.4,2.9c1.6,0.5,2.7,0.3,2.8,0.3c3.7-0.6,1.8-3.2,1.6-3.4
			c-1.4-1.1-5.4-1.4-5.4-1.4c-2.8-0.4-4.7-1.1-5.9-1.6c-1.4-0.6-2.6-1.5-3.5-2.8c-1-1.3-1.4-2.8-1.4-4.5c0-1.8,0.5-3.4,1.5-4.8
			c1-1.3,2.5-2.3,4.3-3c1.8-0.7,4.2-1,7.3-1c3.2,0,5.2,0.4,6.8,1c1.8,0.7,3.1,1.3,4.1,2.3c1,1.1,2.3,2.4,2.4,5.4c0,0-9.8,0-9.8,0
			C122.8,10.1,120.6,9.4,120.6,9.4"/>
		<path fill-rule="evenodd" clip-rule="evenodd" fill="#006772" d="M93.7,14.7c-0.4-2.3-2.2-3.5-4-3.5c-2.4,0-4.4,2.4-4.4,5.3v2.9
			c0,2.9,2,5.3,4.4,5.3c2,0,3.9-1.4,4-3.9h9.7c-0.5,3.2-1.7,6.4-4.1,8.4c-2.4,2-5.5,3.1-9.4,3.1c-4.4,0-8-1.3-10.7-4
			C76.4,25.5,75,22.1,75,18c0-4.2,1.4-7.7,4.1-10.5c2.7-2.7,6.3-4.1,10.6-4.1c3.9,0,7,1,9.4,3.1c2.4,2.1,4,5,4.3,8.2H93.7"/>
		<path fill-rule="evenodd" clip-rule="evenodd" fill="#006772" d="M34.9,34.8H6.6c0,0,5.7-0.9,12.5-15.3
			C25.9,5.1,27.9,0.9,31.8,0.9c0.9,0,1.6,0.6,1.9,1.6c-0.1-0.3-3.3-0.4-2.7,3c0.3,1.7,2.1,1.8,2.5,1.8c0.8,0,1.5-0.6,1.5-0.6V34.8"
			/>
		<rect y="0" fill="none" width="134" height="46"/>
	</g>
</g>
</svg>
